<?xml version="1.0" standalone="no"?>
<!DOCTYPE svg PUBLIC "-//W3C//DTD SVG 20010904//EN"
 "http://www.w3.org/TR/2001/REC-SVG-20010904/DTD/svg10.dtd">
<svg version="1.0" xmlns="http://www.w3.org/2000/svg"
 width="200.000000pt" height="200.000000pt" viewBox="0 0 200.000000 200.000000"
 preserveAspectRatio="xMidYMid meet">

<g transform="translate(0.000000,200.000000) scale(0.100000,-0.100000)"
fill="#000000" stroke="none">
<path d="M539 1912 c-74 -39 -114 -103 -113 -181 0 -31 8 -70 18 -88 l16 -32
-37 -34 -37 -34 -30 18 c-39 24 -80 24 -131 0 -85 -39 -122 -113 -165 -329
-35 -180 -37 -225 -10 -270 21 -34 87 -71 128 -72 12 0 22 -2 22 -5 0 -3 -13
-78 -30 -168 -43 -239 -69 -412 -72 -497 l-3 -75 -41 -27 c-49 -31 -60 -46
-45 -61 8 -8 37 -5 108 11 54 12 172 28 263 37 222 21 501 61 580 83 49 13 72
15 94 8 24 -9 31 -7 45 11 22 27 102 40 310 53 132 8 168 14 260 44 58 18 152
48 208 65 107 33 131 51 118 92 -4 11 -17 27 -31 35 -23 15 -31 13 -163 -40
-157 -64 -254 -86 -379 -86 -100 0 -192 -19 -261 -54 l-48 -25 -6 72 c-4 40
-9 123 -13 185 -7 108 -6 112 13 112 18 0 51 24 140 103 l22 19 20 -40 c29
-58 39 -60 77 -19 l33 35 26 -34 c37 -48 71 -44 102 11 12 22 24 45 27 50 2 6
20 -9 40 -32 70 -81 138 -105 157 -57 11 31 -4 59 -57 106 -18 16 -52 52 -75
79 -38 45 -40 52 -26 66 13 14 19 11 52 -26 49 -54 83 -55 128 -6 l33 36 33
-46 c18 -25 44 -53 57 -61 22 -15 26 -15 49 0 14 9 25 25 25 35 0 54 -204 301
-249 301 -25 0 -92 -62 -161 -148 l-35 -44 -32 46 c-47 66 -73 64 -158 -15
-36 -34 -107 -113 -158 -177 l-92 -116 -12 119 c-6 66 -14 141 -17 168 -4 36
-2 47 9 47 8 0 30 14 50 31 29 25 35 38 35 69 0 47 -37 96 -80 105 -26 6 -30
11 -30 39 0 18 -7 56 -15 84 -27 91 -65 57 -65 -59 0 -66 -1 -67 -75 -48 -55
14 -101 59 -132 129 -14 30 -36 67 -50 81 l-25 27 35 11 c48 16 113 89 127
142 23 84 -5 169 -55 169 -35 0 -48 -24 -41 -75 5 -32 3 -54 -10 -80 -43 -90
-173 -84 -204 10 -10 29 -8 41 9 80 24 55 63 75 145 75 40 0 55 4 60 16 10 27
7 33 -34 54 -55 28 -107 25 -171 -8z m80 -423 c35 -36 91 -131 91 -157 0 -4
16 -27 35 -49 46 -54 119 -85 217 -91 83 -5 110 -19 82 -43 -12 -10 -45 -14
-103 -14 -101 0 -151 20 -231 92 -56 50 -87 53 -114 10 -20 -31 -46 -164 -46
-236 0 -91 20 -129 112 -212 109 -98 110 -103 148 -364 7 -44 21 -102 31 -130
14 -38 16 -51 6 -57 -39 -25 -71 12 -92 105 -20 92 -57 171 -126 274 -77 114
-135 173 -171 173 -32 0 -36 -7 -62 -115 -9 -38 -44 -126 -77 -195 -69 -143
-81 -201 -53 -249 10 -17 23 -31 29 -32 24 -2 -44 -17 -82 -18 -40 -1 -43 1
-43 27 0 46 68 457 110 662 81 399 147 597 213 639 49 32 79 27 126 -20z
m-279 -34 c0 -2 -11 -37 -24 -77 -13 -40 -39 -140 -57 -221 l-33 -148 -35 3
c-48 4 -49 19 -16 182 40 193 77 266 137 266 15 0 28 -2 28 -5z m465 -410 c32
-8 85 -15 116 -15 l57 0 7 -112 c3 -62 13 -196 21 -298 19 -245 19 -370 0
-370 -8 0 -21 -3 -29 -6 -22 -8 -74 105 -86 186 -5 36 -15 101 -21 145 -17
119 -45 172 -126 239 -93 76 -109 105 -109 186 0 36 4 77 8 92 l7 27 48 -29
c26 -16 74 -36 107 -45z m936 -1 l22 -36 -30 -29 -29 -29 -27 28 -27 28 31 37
c17 20 32 37 34 37 2 0 13 -16 26 -36z m-311 -83 c0 -5 18 -32 39 -59 l40 -50
-18 -48 -19 -48 -21 43 c-31 59 -48 62 -87 17 -32 -37 -33 -37 -44 -16 -10 18
-6 28 28 73 22 29 45 62 51 75 12 22 31 30 31 13z m-872 -358 c75 -118 92
-158 112 -257 10 -50 23 -103 29 -119 l11 -27 -119 0 c-65 0 -132 -3 -150 -6
-24 -5 -32 -3 -38 12 -3 11 -17 32 -30 47 -13 16 -23 37 -23 48 0 11 25 74 55
140 31 67 63 148 72 180 9 33 20 59 24 59 4 0 29 -35 57 -77z"/>
</g>
</svg>
